<svg width="80" height="80" viewBox="0 0 80 80" fill="none" xmlns="http://www.w3.org/2000/svg"><path d="M69.66 57.718c0 2.17-1.802 3.93-4.021 3.93H14.36c-2.222 0-4.02-1.76-4.02-3.93V22.284c0-2.173 1.8-3.932 4.02-3.932H65.64c2.222 0 4.02 1.76 4.02 3.93v35.436z" fill="#fff"></path><path d="M16.85 49.617c0 .831.594.927 1.123.927 2.333 0 3.098-1.76 3.098-3.37 0-2.019-1.294-3.475-3.378-3.475-.445 0-.647.03-.843.042v5.876zm-1.059-5.064c0-.972-.507-.908-.992-.917v-.28c.42.02.852.02 1.275.02.453 0 1.07-.02 1.868-.02 2.795 0 4.319 1.866 4.319 3.779 0 1.07-.627 3.758-4.448 3.758-.55 0-1.059-.022-1.566-.022-.507 0-.96.011-1.448.022v-.28c.648-.065.961-.087.992-.82v-5.24zM23.793 44.292a.552.552 0 01-.53-.54c0-.282.26-.518.53-.518s.53.227.53.518a.54.54 0 01-.53.54zm-1.154 6.316h.204c.303 0 .519 0 .519-.357v-2.927c0-.474-.163-.54-.563-.756v-.174c.507-.153 1.112-.356 1.154-.39a.395.395 0 01.196-.055c.055 0 .075.065.075.152v4.145c0 .358.238.358.54.358h.183v.28c-.367 0-.745-.022-1.132-.022-.387 0-.778.011-1.176.022v-.28.005zM25.975 47.393c0-.398-.12-.507-.625-.712v-.205c.462-.15.905-.29 1.425-.518.034 0 .065.023.065.107v.703c.616-.443 1.145-.81 1.87-.81.916 0 1.241.67 1.241 1.513v2.784c0 .358.238.358.54.358h.196v.28c-.38 0-.756-.022-1.145-.022-.39 0-.778.011-1.168.022v-.28h.196c.303 0 .518 0 .518-.358v-2.796c0-.616-.376-.918-.992-.918-.346 0-.896.28-1.254.518v3.196c0 .358.238.358.54.358h.194v.28c-.378 0-.756-.022-1.145-.022-.39 0-.776.011-1.166.022v-.28h.196c.303 0 .518 0 .518-.358v-2.86l-.004-.002zM33.416 47.564c.27 0 .3-.14.3-.271 0-.55-.333-.992-.938-.992-.658 0-1.112.485-1.241 1.263h1.88zm-1.912.347c-.023.098-.023.258 0 .627.064 1.025.722 1.868 1.585 1.868.594 0 1.059-.325 1.46-.723l.15.152c-.496.658-1.112 1.22-1.997 1.22-1.717 0-2.061-1.663-2.061-2.355 0-2.117 1.425-2.742 2.18-2.742.875 0 1.814.552 1.825 1.695 0 .067 0 .129-.011.196l-.098.064h-3.034v-.002zM34.893 50.61h.291c.3 0 .518 0 .518-.357v-3.034c0-.333-.398-.4-.56-.487v-.162c.787-.336 1.22-.616 1.319-.616.062 0 .095.033.095.14v.972h.023c.269-.42.722-1.112 1.38-1.112.27 0 .617.182.617.571 0 .292-.205.552-.507.552-.336 0-.336-.26-.714-.26-.183 0-.787.249-.787.898v2.535c0 .359.215.359.518.359h.605v.28c-.594-.011-1.046-.022-1.51-.022-.465 0-.897.01-1.286.022v-.28l-.002.002zM39.05 49.39c.14.712.57 1.319 1.36 1.319.636 0 .874-.39.874-.768 0-1.274-2.353-.865-2.353-2.602 0-.605.488-1.383 1.675-1.383.345 0 .81.098 1.23.314l.075 1.1h-.248c-.107-.68-.485-1.067-1.177-1.067-.431 0-.84.25-.84.712 0 1.263 2.504.874 2.504 2.57 0 .712-.572 1.47-1.858 1.47-.43 0-.94-.15-1.316-.366l-.12-1.241.193-.056v-.002zM51.9 45.307h-.27c-.204-1.264-1.1-1.77-2.31-1.77s-3.047.831-3.047 3.422c0 2.182 1.554 3.747 3.218 3.747 1.067 0 1.955-.734 2.17-1.868l.25.065-.25 1.577c-.453.28-1.674.573-2.388.573-2.527 0-4.123-1.63-4.123-4.06 0-2.216 1.974-3.801 4.092-3.801.874 0 1.717.282 2.548.573l.107 1.544.002-.002zM52.289 50.61h.204c.303 0 .518 0 .518-.357v-6.014c0-.703-.162-.723-.571-.843v-.173c.431-.14.885-.334 1.112-.465.118-.065.204-.12.236-.12.066 0 .086.064.086.151v7.46c0 .357.238.357.54.357h.183v.28c-.367 0-.743-.022-1.132-.022-.39 0-.776.012-1.176.023v-.28.004zM59.22 50.297c0 .196.119.205.3.205.132 0 .292-.011.434-.011v.227c-.464.042-1.35.269-1.556.333l-.054-.033v-.874c-.647.53-1.145.907-1.912.907-.583 0-1.188-.378-1.188-1.285V47c0-.28-.042-.551-.647-.605v-.204c.39-.011 1.25-.076 1.392-.076.12 0 .12.076.12.314v2.784c0 .325 0 1.252.939 1.252.367 0 .852-.28 1.305-.658v-2.904c0-.216-.518-.334-.905-.443v-.194c.972-.066 1.577-.15 1.684-.15.086 0 .086.075.086.193v3.983l.003.004zM61.369 49.67c0 .41.39 1.1 1.112 1.1 1.154 0 1.641-1.133 1.641-2.094 0-1.165-.885-2.137-1.726-2.137-.4 0-.736.26-1.027.507V49.67zm0-2.938c.431-.367 1.014-.778 1.608-.778 1.252 0 2.008 1.092 2.008 2.268 0 1.415-1.036 2.83-2.582 2.83-.798 0-1.219-.261-1.501-.379l-.323.25-.226-.119c.095-.636.15-1.263.15-1.921V44.24c0-.702-.161-.722-.573-.843v-.173c.431-.14.885-.334 1.112-.465.12-.064.205-.12.238-.12.064 0 .087.067.087.151v3.941h.002zM14.786 57.17h.082c.212 0 .434-.03.434-.337v-3.078c0-.306-.222-.335-.434-.335h-.082v-.176c.23 0 .583.024.87.024.287 0 .644-.024.92-.024v.176h-.082c-.211 0-.434.029-.434.335v3.078c0 .307.225.336.434.336h.082v.176c-.282 0-.636-.022-.927-.022-.291 0-.636.022-.865.022v-.176h.002z" fill="#231916"></path><path d="M16.554 57.32v-.124H16.5c-.21 0-.46-.038-.46-.36v-3.078c0-.325.25-.36.46-.36h.055v-.125c-.271 0-.611.024-.896.024-.285 0-.616-.022-.845-.024v.124h.055c.21 0 .46.036.46.36v3.079c0 .324-.248.36-.46.36h-.055v.124c.227 0 .56-.024.838-.024.278 0 .625.022.903.024zm.025.052c-.285 0-.636-.025-.928-.025-.291 0-.634.025-.863.025h-.026v-.227h.106c.214-.005.407-.023.41-.31v-3.077c0-.287-.196-.307-.41-.31h-.106v-.226h.026c.232 0 .583.022.87.022.287 0 .645-.022.92-.022h.027v.227h-.109c-.213.004-.409.022-.409.309v3.078c0 .287.196.304.41.309h.108v.227h-.026zM20.615 56.188l.011-.01v-2.202c0-.483-.336-.554-.511-.554h-.13v-.176c.276 0 .548.025.823.025.24 0 .483-.025.723-.025v.176h-.086c-.247 0-.523.047-.523.747v2.673c0 .207.007.412.035.594h-.222l-3.024-3.374v2.422c0 .512.1.687.551.687h.1v.176c-.253 0-.505-.022-.758-.022-.254 0-.534.022-.799.022v-.176h.083c.404 0 .529-.275.529-.745v-2.475a.526.526 0 00-.534-.527h-.075v-.176c.222 0 .451.025.676.025.175 0 .347-.025.522-.025l2.616 2.943-.007-.003z" fill="#231916"></path><path d="M20.602 56.175l-.005-.006.005.006zm.013.011l.018-.017-.018.017zm.116 1.219h.193a3.877 3.877 0 01-.03-.567v-2.673c0-.705.295-.772.548-.772h.063v-.124c-.232 0-.463.022-.696.022-.27 0-.532-.022-.797-.022v.124h.103c.18 0 .536.08.536.578l-.01 2.222-.01.011-.02.018-2.614-2.956c-.173 0-.344.023-.522.023-.216 0-.436-.023-.65-.023v.125h.052c.275 0 .558.211.558.556v2.475c0 .47-.131.77-.554.772h-.058v.124c.254 0 .516-.024.774-.024s.49.022.732.024v-.124h-.073c-.463 0-.576-.203-.579-.714v-2.486l3.052 3.411h.002zm.222.051l-.242-.009-2.983-3.322v2.355c.007.511.085.656.527.66h.127v.227h-.027c-.253 0-.506-.024-.758-.024-.262 0-.534.024-.798.024h-.027v-.227h.11c.388 0 .497-.25.502-.72v-2.476a.501.501 0 00-.51-.502h-.102v-.227h.027c.224 0 .454.022.674.022.175 0 .344-.022.542-.013l2.582 2.907v-2.162c-.002-.467-.313-.523-.485-.527h-.155v-.227h.026c.279 0 .548.022.823.022.238 0 .48-.022.723-.022h.027v.227h-.114c-.242.007-.491.027-.498.72v2.674c0 .204.007.411.036.589l.004.029h-.03v.002zM22.412 53.537c-.44 0-.458.107-.547.534h-.176c.022-.164.054-.329.071-.498.025-.165.036-.33.036-.498h.14c.047.176.194.169.354.169h3.03c.161 0 .308-.007.319-.182l.14.024c-.022.158-.047.316-.064.476-.012.158-.012.316-.012.476l-.175.064c-.011-.218-.04-.565-.434-.565h-.963v3.125c0 .454.207.505.487.505h.111v.176c-.229 0-.64-.023-.958-.023-.354 0-.765.023-.994.023v-.176h.11c.326 0 .488-.029.488-.494v-3.138h-.963v.002z" fill="#231916"></path><path d="M24.727 57.37c-.231 0-.643-.023-.958-.023-.352 0-.763.022-.994.022h-.025v-.226h.138c.325-.007.454-.011.46-.467v-3.114h-.938v-.051h.987v3.165c0 .471-.189.52-.511.52h-.087v.125c.231 0 .627-.023.97-.023.307 0 .698.023.932.023v-.125h-.087c-.285 0-.514-.071-.514-.532v-3.15h.99c.393 0 .447.335.458.555l.127-.047c0-.153 0-.306.01-.462.018-.151.039-.3.06-.452l-.088-.015c-.027.171-.194.18-.34.178h-3.06c-.139 0-.29-.007-.343-.172h-.098c0 .163-.011.32-.033.476-.018.163-.045.316-.067.472h.124c.078-.41.127-.543.568-.536v.051c-.436.009-.425.082-.52.516l-.005.02h-.227v-.031c.027-.165.058-.33.073-.5.025-.163.036-.327.036-.494v-.027h.187l.004.018c.04.149.15.149.298.151h3.06c.165-.002.283-.004.294-.158v-.026l.029.004.167.027-.005.026c-.022.158-.047.316-.064.474-.011.158-.011.316-.011.474v.017l-.018.007-.207.076v-.034c-.018-.22-.04-.54-.412-.54h-.938v3.1c.007.443.182.474.462.48h.138v.227h-.024.002zM25.966 57.17h.082c.211 0 .436-.03.436-.337v-3.078c0-.306-.225-.335-.436-.335h-.082v-.176c.358 0 .97.024 1.463.024.494 0 1.106-.024 1.504-.024-.011.253-.005.64.013.898l-.178.047c-.029-.382-.098-.687-.716-.687h-.816v1.539h.698c.351 0 .43-.198.465-.516h.175a13.26 13.26 0 000 1.357l-.175.035c-.036-.351-.054-.58-.458-.58h-.703v1.367c0 .383.34.383.716.383.705 0 1.016-.047 1.192-.716l.165.04c-.076.311-.147.622-.198.934-.376 0-1.052-.022-1.58-.022-.526 0-1.227.022-1.563.022v-.176h-.004z" fill="#231916"></path><path d="M29.086 57.32c.051-.298.118-.593.191-.89l-.115-.028c-.176.656-.516.716-1.21.712-.37 0-.74 0-.743-.41V55.31h.73c.411-.005.451.242.48.578l.127-.026a12.68 12.68 0 010-1.313h-.127c-.033.307-.13.52-.487.519h-.725v-1.59h.843c.611-.005.711.31.738.68l.127-.036a9.076 9.076 0 01-.011-.851c-.398 0-.994.022-1.48.022-.484 0-1.076-.022-1.436-.022v.124h.058c.209 0 .458.038.46.363v3.078c0 .324-.251.36-.46.362h-.058v.125c.343 0 1.02-.023 1.537-.023.516 0 1.179.023 1.559.023m.022.05c-.378 0-1.054-.024-1.579-.024-.525 0-1.228.025-1.563.025h-.025v-.227h.107c.213-.005.407-.022.41-.31V53.76c-.003-.287-.197-.307-.41-.31h-.107v-.226h.025c.358 0 .97.022 1.463.022.494 0 1.103-.022 1.503-.022h.027v.027a9.71 9.71 0 00.011.896v.02l-.018.006-.206.054v-.031c-.036-.38-.087-.658-.692-.665h-.792v1.488h.674c.338-.005.398-.176.44-.494V54.5h.227v.027a13.329 13.329 0 000 1.357v.022l-.02.004-.204.04v-.026c-.043-.358-.045-.556-.434-.56h-.68v1.343c0 .358.309.355.691.358.707-.005.992-.038 1.168-.699l.006-.024.025.004.189.05-.005.024a14.19 14.19 0 00-.2.931l-.004.02h-.02l-.007.003zM30.854 55.23h.287c.59 0 .905-.222.905-.916 0-.523-.336-.857-.858-.857-.176 0-.252.018-.334.025v1.75-.002zm-.752-1.363c0-.43-.235-.445-.418-.445h-.107v-.176c.19 0 .552.025.912.025s.634-.025.945-.025c.739 0 1.4.2 1.4 1.034 0 .53-.354.852-.817 1.034l1.005 1.504c.165.249.283.318.57.353v.176c-.194 0-.383-.022-.576-.022-.183 0-.372.022-.552.022-.453-.594-.84-1.228-1.223-1.904h-.387v1.26c0 .45.211.468.48.468h.107v.176c-.336 0-.676-.022-1.01-.022-.282 0-.558.022-.851.022v-.176h.107c.217 0 .418-.1.418-.315v-2.987l-.003-.002z" fill="#231916"></path><path d="M31.141 55.206c.58-.007.874-.207.88-.89-.004-.514-.322-.832-.833-.834-.158 0-.234.016-.31.022v1.702h.263zm-.287.048h-.026v-1.799h.022c.08-.009.16-.024.338-.024.536 0 .883.347.885.883 0 .7-.338.94-.93.94h-.289zm0 .16h.403l.006.014c.383.676.77 1.31 1.201 1.89.178 0 .367-.024.552-.024.184 0 .369.02.551.022v-.129c-.275-.033-.404-.118-.565-.36l-1.023-1.53.03-.011c.46-.183.8-.496.8-1.012 0-.814-.634-1.005-1.372-1.008-.31 0-.592.025-.945.025-.354 0-.694-.022-.886-.025v.125h.08c.183 0 .443.03.443.471v2.987c0 .236-.22.343-.442.343h-.08v.124c.282 0 .551-.022.827-.022.329 0 .66.022.985.022v-.125h-.08c-.267 0-.507-.033-.507-.498V55.41h.027l-.005.005zm2.738 1.955c-.198 0-.385-.024-.578-.024-.178 0-.367.024-.572.013-.451-.591-.836-1.223-1.216-1.892h-.347v1.23c.006.442.184.438.455.444h.132v.227h-.027c-.336 0-.676-.024-1.01-.024-.28 0-.556.024-.851.024h-.027v-.227h.131c.211 0 .39-.093.392-.291v-2.987c-.005-.416-.21-.413-.392-.42h-.131v-.227h.027c.189 0 .553.022.911.022s.632-.022.946-.022c.74 0 1.423.205 1.423 1.059 0 .529-.351.86-.803 1.047l.987 1.48c.165.244.267.304.552.342h.022v.226h-.024zM37.58 56.188l.01-.01v-2.202c0-.483-.333-.554-.509-.554h-.129v-.176c.276 0 .545.025.823.025.242 0 .48-.025.723-.025v.176h-.09c-.246 0-.522.047-.522.747v2.673c0 .207.007.412.036.594H37.7l-3.025-3.374v2.422c0 .512.1.687.552.687h.1v.176c-.252 0-.505-.022-.759-.022-.264 0-.536.022-.798.022v-.176h.082c.405 0 .53-.275.53-.745v-2.475a.526.526 0 00-.534-.527h-.076v-.176c.222 0 .454.025.676.025.176 0 .347-.025.523-.025l2.615 2.943-.007-.003z" fill="#231916"></path><path d="M37.566 56.175l-.005-.007.005.007zm.013.011l.02-.018-.02.018zm.118 1.219h.194a3.89 3.89 0 01-.032-.567v-2.673c0-.705.298-.77.55-.772h.062v-.125c-.231 0-.462.023-.696.023-.27 0-.532-.023-.798-.023v.125h.104c.18 0 .536.08.536.578l-.009 2.222-.01.011-.019.02-2.613-2.956c-.175 0-.345.023-.523.023-.217 0-.438-.023-.651-.023v.125h.051c.276 0 .558.209.558.554v2.473c0 .471-.133.771-.554.774h-.057v.124c.253 0 .516-.024.774-.024s.491.022.733.024v-.124h-.073c-.462 0-.578-.203-.578-.714v-2.487l3.053 3.412h-.002zm.223.051l-.243-.009-2.982-3.322v2.355c.007.511.084.656.527.663h.124v.226h-.024c-.254 0-.507-.024-.758-.024-.252 0-.534.024-.799.024h-.026v-.227h.108c.387 0 .499-.25.503-.72v-2.473a.5.5 0 00-.507-.503h-.102v-.227h.026c.225 0 .454.023.676.023.174 0 .343-.023.54-.016l2.583 2.91v-2.163c0-.467-.314-.524-.485-.527h-.156v-.227h.025c.278 0 .55.023.823.023.24 0 .48-.023.723-.023h.026v.227h-.113c-.243.007-.492.027-.498.72v2.674c0 .205.004.41.035.59v.028h-.024l-.002-.002zM40.3 53.902h-.014l-.545 1.664h1.099l-.54-1.664zm-.86 2.602c-.06.2-.128.354-.128.458 0 .178.247.207.44.207h.065v.176a10.089 10.089 0 00-1.345 0v-.176h.035c.229 0 .422-.135.51-.382l.94-2.696c.078-.218.182-.511.218-.73.187-.064.422-.18.534-.253.017-.006.028-.01.046-.01s.03 0 .042.017l.054.147 1.08 3.073c.072.205.14.423.216.6.072.165.196.234.39.234h.035v.176a15.933 15.933 0 00-1.692 0v-.176h.064c.134 0 .365-.024.365-.171 0-.076-.053-.233-.118-.423l-.229-.68h-1.334l-.187.611v-.002z" fill="#231916"></path><path d="M40.273 53.911l.013-.004-.014.004zm-.499 1.63h1.03l-.512-1.574-.518 1.574zm-.07.052l.562-1.715h.031v.026h-.007.007v-.026h.018l.558 1.715h-1.17zm1.2 1.727c.291-.01.576-.022.856-.022s.53.011.785.023v-.123h-.009c-.202 0-.34-.078-.41-.251-.076-.178-.15-.396-.219-.6l-1.08-3.074a3.534 3.534 0 01-.05-.14c-.006-.007-.004-.007-.008-.007h-.012c-.01 0-.017.005-.033.007-.113.073-.35.189-.523.236-.035.222-.142.516-.218.733l-.94 2.696c-.09.256-.296.4-.534.4H38.5v.123c.202-.012.405-.023.61-.023.226 0 .458.011.682.023v-.123h-.038c-.19-.002-.458-.024-.467-.231 0-.116.074-.267.13-.465l.024.007-.025-.01.194-.626h1.37l.236.698c.066.19.12.345.12.431-.01.18-.256.194-.39.196h-.04v.123h-.002zm1.666.052c-.265-.011-.53-.025-.81-.025s-.58.014-.88.025h-.027v-.227h.091c.136 0 .338-.031.338-.145 0-.066-.051-.227-.115-.416l-.225-.665h-1.297l-.182.594c-.06.2-.131.356-.129.452 0 .144.222.178.416.178h.091v.229h-.027a12.551 12.551 0 00-.71-.027c-.208 0-.422.013-.63.025h-.027v-.227h.06c.218 0 .4-.125.485-.365l.94-2.698c.076-.218.183-.51.234-.745.184-.062.42-.18.534-.251a.136.136 0 01.055-.013c.014 0 .047.002.065.033.015.049.035.1.053.149l1.08 3.073c.07.205.14.423.217.596.069.156.175.218.364.218h.06v.23h-.026l.002.002zM42.832 53.537c-.44 0-.458.107-.547.534h-.175c.022-.164.053-.329.07-.498.023-.165.034-.33.034-.498h.142c.047.176.194.169.352.169h3.031c.158 0 .305-.007.316-.182l.14.024c-.022.158-.045.316-.065.476-.013.158-.013.316-.013.476l-.176.064c-.01-.218-.04-.565-.433-.565h-.963v3.125c0 .454.207.505.487.505h.111v.176c-.23 0-.64-.023-.959-.023-.35 0-.765.023-.994.023v-.176h.111c.325 0 .488-.029.488-.494v-3.138h-.963l.006.002z" fill="#231916"></path><path d="M45.145 57.37c-.231 0-.643-.023-.958-.023-.352 0-.763.022-.992.022h-.027v-.226h.138c.325-.007.454-.011.463-.468v-3.113h-.937v-.051h.988v3.164c0 .472-.192.519-.514.521h-.087v.125c.231 0 .627-.025.968-.025.307 0 .7.022.931.025v-.125h-.086c-.283 0-.512-.069-.512-.532v-3.15h.99c.394 0 .447.335.458.555l.127-.047c0-.153 0-.306.013-.46.016-.151.038-.302.06-.451l-.089-.016c-.026.171-.193.18-.338.178H42.68c-.138 0-.29-.007-.343-.171h-.095c0 .162-.014.32-.036.478-.015.162-.044.318-.067.471h.127c.078-.409.13-.542.57-.536v.051c-.436.007-.428.083-.523.516l-.005.02h-.226l.004-.028c.024-.165.053-.33.071-.5.025-.165.036-.328.036-.497v-.026h.187l.004.017c.04.15.149.15.298.151h3.062c.163-.002.28-.004.292-.157v-.03l.029.005.166.027-.004.026c-.024.158-.047.316-.065.474-.01.158-.01.316-.01.474v.018l-.018.006-.207.076v-.033c-.016-.22-.04-.54-.412-.54h-.938v3.1c.007.442.182.473.462.48h.138v.227h-.024l-.007-.003zM46.413 57.17h.082c.211 0 .434-.03.434-.337v-3.078c0-.306-.223-.335-.434-.335h-.082v-.176c.229 0 .58.024.87.024.288 0 .647-.024.922-.024v.176h-.082c-.213 0-.436.029-.436.335v3.078c0 .307.223.336.436.336h.082v.176c-.282 0-.636-.022-.93-.022-.293 0-.633.022-.862.022v-.176z" fill="#231916"></path><path d="M48.18 57.32v-.124h-.055c-.211 0-.46-.038-.46-.36v-3.078c0-.325.249-.36.46-.363h.056v-.124c-.271 0-.612.022-.896.022-.285 0-.616-.022-.843-.022v.124h.058c.209 0 .458.038.46.363v3.078c0 .324-.251.36-.46.36h-.058v.124c.227-.002.558-.022.838-.022.28 0 .625.022.903.022m.027.052c-.285 0-.636-.025-.93-.025-.293 0-.634.025-.863.025h-.024v-.227h.107c.21-.005.407-.023.409-.31v-3.077c0-.287-.196-.307-.41-.31h-.106v-.226h.024c.23 0 .583.022.87.022.287 0 .645-.022.923-.022h.024v.227h-.107c-.215.004-.409.022-.41.309v3.078c0 .287.195.306.41.309h.107v.227h-.024zM50.638 57.176c1.141 0 1.34-1.005 1.34-1.861 0-.857-.463-1.9-1.44-1.9-1.027 0-1.334.916-1.334 1.704 0 1.052.483 2.057 1.434 2.057zm-.089-4.019c1.252 0 2.251.776 2.251 2.029 0 1.352-.97 2.25-2.22 2.25-1.25 0-2.197-.845-2.197-2.11 0-1.266.945-2.169 2.166-2.169z" fill="#231916"></path><path d="M49.18 55.119c0-.79.31-1.73 1.358-1.73.999 0 1.464 1.06 1.466 1.923 0 .857-.203 1.886-1.366 1.886v-.049c1.117 0 1.313-.98 1.313-1.837 0-.851-.459-1.87-1.415-1.872-1.007 0-1.305.896-1.308 1.677 0 1.047.478 2.03 1.408 2.03v.049c-.974 0-1.457-1.023-1.459-2.082m-.823.207a2.165 2.165 0 012.193-2.193v.052a2.114 2.114 0 00-2.144 2.141c.003 1.25.941 2.082 2.175 2.084 1.24 0 2.193-.885 2.195-2.224 0-1.236-.983-2-2.226-2.001v-.052c1.261 0 2.275.785 2.278 2.053 0 1.366-.983 2.273-2.247 2.275-1.256 0-2.221-.856-2.224-2.135zM56.759 56.188l.01-.01v-2.202c0-.483-.335-.554-.51-.554h-.13v-.176c.276 0 .547.025.82.025.243 0 .483-.025.724-.025v.176h-.09c-.246 0-.522.047-.522.747v2.673c0 .207.007.412.036.594h-.223l-3.027-3.374v2.422c0 .512.1.687.552.687h.1v.176c-.253 0-.505-.022-.758-.022-.254 0-.536.022-.799.022v-.176h.083c.407 0 .529-.275.529-.745v-2.475c0-.33-.27-.527-.536-.527h-.076v-.176c.223 0 .452.025.676.025.176 0 .345-.025.523-.025l2.616 2.943.002-.003z" fill="#231916"></path><path d="M56.745 56.175l-.004-.006.004.006zm.014.011l.017-.017-.017.017zm.118 1.219h.193a4.209 4.209 0 01-.031-.567v-2.673c0-.707.296-.77.55-.772h.064v-.125c-.234 0-.465.023-.699.023-.267 0-.529-.023-.796-.023v.125h.102c.183 0 .537.082.537.578l-.007 2.222-.011.011-.018.02-2.615-2.956c-.174 0-.345.023-.523.023-.216 0-.438-.023-.652-.023v.125h.052c.275 0 .56.209.56.554v2.475c0 .47-.131.77-.554.772h-.058v.124c.256 0 .516-.024.774-.024s.49.022.732.024v-.124H54.4c-.46 0-.576-.203-.576-.714v-2.487l3.052 3.412zm.224.051l-.242-.009-2.983-3.322v2.355c.007.511.085.656.525.66h.127v.23h-.024c-.254 0-.507-.025-.759-.025-.251 0-.533.024-.8.024h-.025v-.229h.107c.387 0 .498-.251.502-.718v-2.475a.501.501 0 00-.509-.503h-.1v-.227h.025c.224 0 .453.023.676.023.173 0 .342-.023.542-.014l2.582 2.907V53.97c0-.467-.315-.522-.487-.527h-.155v-.227h.026c.276 0 .547.023.821.023.24 0 .48-.023.725-.023h.024v.227h-.113c-.242.007-.492.029-.498.72v2.674c0 .204.004.411.033.59l.005.028h-.03.005zM59.479 53.902h-.011l-.548 1.664h1.101l-.54-1.664h-.002zm-.859 2.602c-.058.2-.129.354-.129.458 0 .178.247.207.44.207h.065v.176a10.091 10.091 0 00-1.346 0v-.176h.034c.231 0 .425-.135.511-.382l.943-2.696c.076-.218.183-.511.216-.73a2.89 2.89 0 00.536-.253.11.11 0 01.047-.01c.018 0 .029 0 .04.017l.053.147 1.081 3.073c.071.205.14.423.218.6.071.165.193.234.387.234h.035v.176a15.95 15.95 0 00-1.692 0v-.176h.065c.133 0 .364-.024.364-.171 0-.076-.053-.233-.118-.423l-.229-.68h-1.334l-.19.611.003-.002z" fill="#231916"></path><path d="M59.454 53.911l.011-.004-.01.004zm-.498 1.63h1.027l-.511-1.574-.516 1.574zm-.071.052l.565-1.715h.03v.026h-.006.007v-.026h.018l.556 1.715h-1.17zm1.2 1.727c.292-.01.577-.022.857-.022s.53.011.785.023v-.123h-.011c-.198 0-.338-.078-.412-.251-.077-.178-.146-.396-.218-.6l-1.08-3.074a3.591 3.591 0 01-.05-.14c-.004-.007-.004-.007-.008-.007h-.011c-.014 0-.02.005-.034.009-.115.071-.349.19-.522.233-.036.223-.143.517-.218.734l-.94 2.696c-.09.256-.297.4-.537.4h-.009v.123c.203-.012.405-.023.61-.023.226 0 .46.011.684.023v-.123h-.04c-.19-.002-.458-.022-.466-.231 0-.116.073-.267.13-.465l.025.007-.024-.01.193-.626h1.37l.236.698c.064.19.118.345.118.431-.01.18-.256.194-.39.196h-.04v.125l.003-.002zm1.666.052c-.264-.011-.529-.025-.809-.025s-.58.014-.88.025h-.027v-.227h.089c.135 0 .338-.031.338-.145 0-.066-.052-.227-.118-.416l-.223-.665h-1.296l-.183.594c-.06.203-.129.356-.129.45 0 .144.22.18.414.18h.089v.229h-.027c-.233-.011-.476-.025-.71-.025-.21 0-.42.014-.633.025h-.027v-.227h.06c.218 0 .403-.127.49-.365l.94-2.698c.076-.218.183-.509.234-.742.184-.065.42-.183.534-.254a.127.127 0 01.055-.013c.016 0 .047.002.065.033l.053.147 1.081 3.073c.071.205.14.423.218.599.069.155.176.218.363.218h.06v.229h-.027.007zM63.233 56.769c0 .236.162.307.351.331.24.018.505.018.776-.013a.826.826 0 00.563-.318c.093-.13.147-.294.182-.423h.17c-.065.336-.148.665-.219.999-.516 0-1.034-.022-1.55-.022s-1.034.022-1.55.022v-.176h.082c.212 0 .443-.029.443-.393v-3.02c0-.307-.23-.336-.443-.336h-.082v-.176c.311 0 .616.024.927.024.312 0 .594-.024.895-.024v.176h-.147c-.223 0-.398.006-.398.318v3.03z" fill="#231916"></path><path d="M65.038 57.32c.07-.32.145-.631.21-.947h-.12a1.36 1.36 0 01-.18.414.871.871 0 01-.583.327 4.001 4.001 0 01-.783.011c-.191-.02-.376-.103-.376-.354V53.74c0-.327.207-.343.427-.343h.12v-.124c-.29 0-.576.024-.867.024-.292 0-.6-.022-.903-.024v.124h.055c.21 0 .467.038.467.36v3.02c0 .381-.255.421-.467.421h-.055v.125c.507 0 1.016-.023 1.525-.023.51 0 1.021.023 1.53.023m.023.05c-.519 0-1.037-.024-1.55-.024-.514 0-1.035.025-1.553.025h-.024v-.227h.107c.213-.005.413-.02.416-.367v-3.02c-.003-.287-.203-.305-.416-.31h-.107v-.226h.024c.314 0 .619.022.93.022.311 0 .592-.022.894-.022h.024v.227h-.17c-.228.006-.37-.005-.375.291v3.031c0 .22.145.278.33.305a4.368 4.368 0 00.77-.011.824.824 0 00.546-.307c.091-.127.143-.287.178-.414l.005-.02h.222l-.004.031c-.067.336-.147.663-.218.999l-.005.02h-.02l-.004-.002zM65.105 53.697h.073c.08 0 .118-.06.118-.158 0-.097-.058-.133-.12-.133h-.069v.291h-.002zm-.209.327v-.029c.076-.011.089-.009.089-.055v-.458c0-.065-.007-.087-.087-.083v-.03h.316c.109 0 .209.05.209.164 0 .09-.06.16-.147.186l.102.143a.695.695 0 00.136.146v.02h-.12c-.058 0-.11-.122-.222-.284h-.07v.204c0 .04.014.038.092.05v.028h-.298v-.002zm.307.175a.498.498 0 00.489-.502.498.498 0 00-.49-.504.498.498 0 00-.488.504c0 .267.21.502.489.502zm0-1.12c.353 0 .618.271.618.62a.604.604 0 01-.618.616.605.605 0 01-.618-.616c0-.346.264-.62.618-.62z" fill="#231916"></path><path d="M28.508 32.501c0-5.495 4.454-9.95 9.95-9.95 5.495 0 9.95 4.455 9.95 9.95 0 5.495-4.455 9.95-9.95 9.95-5.496 0-9.95-4.455-9.95-9.95z" fill="#fff"></path><path d="M38.473 42.631c-5.702.027-10.397-4.592-10.397-10.217 0-6.147 4.693-10.397 10.397-10.397h2.674c5.635 0 10.777 4.248 10.777 10.397 0 5.622-5.142 10.217-10.777 10.217h-2.674zm.023-19.76c-5.211 0-9.434 4.226-9.434 9.437 0 5.21 4.223 9.431 9.434 9.434 5.21 0 9.434-4.224 9.436-9.434 0-5.211-4.223-9.434-9.436-9.437zm-2.142 15.017V26.725a5.993 5.993 0 00-3.839 5.58 5.993 5.993 0 003.839 5.58v.003zm8.122-5.58a5.987 5.987 0 00-3.84-5.583V37.89a5.989 5.989 0 003.84-5.582z" fill="#0065AC"></path></svg>