<svg width="96" height="96" viewBox="0 0 96 96" fill="none" xmlns="http://www.w3.org/2000/svg">
<path d="M59.2602 42.2356H60.6804V53.5573H59.2602V42.2356Z" fill="#111821"/>
<path fill-rule="evenodd" clip-rule="evenodd" d="M50.1621 48.3608C50.1621 47.3657 50.1399 46.5697 50.0955 45.8399H51.3604L51.4269 47.1667H51.4491C52.0261 46.2159 52.9359 45.663 54.2008 45.663C56.0648 45.663 57.485 47.233 57.485 49.5991C57.485 52.3853 55.7985 53.7563 53.9567 53.7563C52.9359 53.7563 52.0261 53.314 51.5601 52.5401H51.5379V56.7415H50.1621V48.3608ZM51.5601 50.4173C51.5601 50.6163 51.5823 50.8153 51.6267 50.9922C51.893 51.9651 52.7362 52.6285 53.7348 52.6285C55.2215 52.6285 56.087 51.4123 56.087 49.6433C56.087 48.0954 55.2659 46.7687 53.7791 46.7687C52.825 46.7687 51.9151 47.4542 51.6489 48.5156C51.6045 48.6925 51.5601 48.8915 51.5601 49.0905V50.4173Z" fill="#111821"/>
<path fill-rule="evenodd" clip-rule="evenodd" d="M67.2266 52.5843L67.3375 53.5573V53.5794H68.6468C68.5358 53.0487 68.5136 52.3853 68.5136 51.7219V48.8252C68.5136 47.2773 67.9367 45.663 65.5623 45.663C64.5859 45.663 63.6539 45.9284 63.0104 46.3485L63.3211 47.2773C63.8758 46.9235 64.6303 46.7023 65.3404 46.7023C66.9159 46.7023 67.0934 47.8522 67.0934 48.4935V48.6483C64.0977 48.6261 62.4334 49.6654 62.4334 51.5229C62.4334 52.6285 63.2323 53.7342 64.8078 53.7342C65.9173 53.7342 66.7606 53.1813 67.1822 52.5843H67.2266ZM63.8536 51.3681C63.8536 49.8644 65.6067 49.5991 67.1378 49.6212V50.9922C67.1378 51.1249 67.0934 51.3018 67.0491 51.4344C66.8272 52.0757 66.1836 52.717 65.1851 52.717C64.4528 52.717 63.8536 52.2747 63.8536 51.3681Z" fill="#111821"/>
<path d="M72.397 43.6287V45.8399H74.4163V46.9014H72.397V51.0585C72.397 52.0094 72.6632 52.5622 73.4621 52.5622C73.8393 52.5622 74.1056 52.518 74.2832 52.4737L74.3497 53.5351C74.0834 53.6457 73.6396 53.7342 73.1071 53.7342C72.4413 53.7342 71.931 53.5351 71.5759 53.1371C71.1765 52.717 71.0212 52.0315 71.0212 51.1249V46.9014H69.8229V45.8399H71.0212V43.9825L72.397 43.6287Z" fill="#111821"/>
<path fill-rule="evenodd" clip-rule="evenodd" d="M80.1858 52.5843L80.2968 53.5573V53.5794H81.5838C81.4729 53.0487 81.4507 52.3853 81.4507 51.7219V48.8252C81.4507 47.2773 80.8737 45.663 78.4994 45.663C77.523 45.663 76.591 45.9284 75.9474 46.3485L76.2581 47.2773C76.8129 46.9235 77.5674 46.7023 78.2774 46.7023C79.853 46.7023 80.0305 47.8522 80.0305 48.4935V48.6483C77.0348 48.6261 75.3705 49.6654 75.3705 51.5229C75.3705 52.6285 76.1693 53.7342 77.7449 53.7342C78.8544 53.7342 79.6976 53.1813 80.1193 52.5843H80.1858ZM76.7907 51.3681C76.7907 49.8644 78.5437 49.5991 80.0749 49.6212V50.9922C80.0749 51.1249 80.0305 51.3018 79.9861 51.4344C79.7642 52.0757 79.1207 52.717 78.1221 52.717C77.3898 52.717 76.7907 52.2747 76.7907 51.3681Z" fill="#111821"/>
<path d="M24.9093 42.9432C22.1133 42.8548 18.474 50.1298 17.5198 52.5401C16.9873 53.889 18.6516 54.8398 19.1841 53.5131C20.0718 51.2797 23.1118 45.0439 24.9093 45.0439C26.6845 45.0439 29.6359 51.3239 30.5013 53.5794C31.0339 54.9283 32.6981 53.9774 32.1878 52.6286C31.2558 50.1962 27.7053 42.899 24.9093 42.9432ZM17.3867 48.1839C17.3867 48.0955 17.3645 48.0291 17.3423 47.9407C17.2536 47.41 17.076 46.9235 16.8541 46.5034C16.8541 46.5034 16.8541 46.4812 16.8319 46.4812C16.7654 46.3707 16.6988 46.2601 16.6322 46.1495C16.5878 46.0832 16.5435 46.0169 16.4991 45.9505C16.4769 45.9063 16.4325 45.8621 16.4103 45.8179C16.3438 45.7294 16.2772 45.641 16.2106 45.5746C16.144 45.4862 16.0553 45.4198 15.9887 45.3314C15.9665 45.3093 15.9665 45.2872 15.9443 45.2872C13.0152 42.3904 6.57994 42.6779 4.73813 43.4518C3.49546 43.9825 3.91708 45.5083 5.29289 44.9112C7.51194 44.3584 9.64222 44.3584 11.8169 44.9112C13.5921 45.3535 15.4783 46.9014 15.4783 48.5819C15.3452 52.7391 9.81975 52.916 7.6007 52.3632V47.1888C7.6007 45.9505 6.00298 45.9505 6.00298 47.1888V52.3853C6.00298 53.4246 6.53556 53.8005 7.26784 53.9774C8.95432 54.3533 16.0331 54.7735 17.2758 49.7539C17.2979 49.6655 17.3201 49.5549 17.3423 49.4664C17.3645 49.378 17.3867 49.2895 17.3867 49.2011C17.4311 48.8694 17.4533 48.5377 17.4089 48.2281C17.4089 48.2281 17.3867 48.206 17.3867 48.1839ZM47.0554 44.071C47.0554 42.6336 45.2358 42.6336 45.2358 44.0489V53.1371C45.2358 54.5081 47.0554 54.5523 47.0554 53.1814V44.071ZM42.5063 43.5403C41.7075 45.7957 39.0002 52.0757 37.336 52.0978C35.6939 52.12 32.8757 45.8842 32.0324 43.6508C31.522 42.302 29.9909 43.2749 30.5013 44.6238C31.4111 47.0341 34.784 54.287 37.3803 54.1985C39.9766 54.2428 43.2164 46.9235 44.0597 44.4911C44.5479 43.1201 42.9945 42.1914 42.5063 43.5403Z" fill="#EB202A"/>
<path d="M89.1286 38.6755C87.7084 37.4814 85.3118 35.6903 84.6017 35.1596C84.6905 34.076 84.8902 32.882 85.1343 31.8869C85.4228 30.737 85.6669 29.742 85.1343 29.0565C84.7792 28.5921 84.1357 28.371 83.1149 28.371H79.3648C78.5215 28.371 77.9002 28.6142 77.5229 29.1007C77.2567 29.4545 77.1235 29.941 77.1901 30.4938C73.1736 28.3046 69.6675 27.0221 67.7369 27C65.651 27.0221 61.7899 28.5037 57.374 31.0024C56.7526 31.3562 52.9359 33.5896 51.0941 35.0269C51.0719 35.049 48.0318 37.2381 46.3453 38.6312C45.5464 39.3167 44.9473 39.9359 44.5257 40.5108C44.4591 40.5993 44.4147 40.6877 44.4147 40.7983C44.4147 41.0636 44.6144 41.2626 44.8807 41.2626C45.0139 41.2626 45.147 41.1963 45.2358 41.0857C45.2358 41.0857 45.3689 40.9088 45.4577 40.7762C45.8349 40.2897 46.3453 39.8032 46.9444 39.2946C48.6087 37.9015 51.6045 35.7345 51.6488 35.7124C53.4685 34.3193 57.2186 32.108 57.84 31.7542C62.1227 29.3439 65.8286 27.8845 67.7591 27.8624C69.6897 27.8845 73.3955 29.3218 77.6783 31.7542C77.8336 31.8427 78.0333 31.8206 78.1665 31.7321C78.3218 31.6215 78.3884 31.4446 78.344 31.2677C78.3218 31.1572 78.2774 31.0466 78.2552 30.936C78.233 30.8697 78.2108 30.8255 78.2108 30.7591C78.1221 30.4717 78.0333 29.9631 78.2774 29.6314C78.5215 29.3218 79.0097 29.2555 79.4091 29.2555H83.1593C83.8251 29.2555 84.291 29.3661 84.4464 29.5872C84.7127 29.941 84.513 30.7591 84.291 31.6437C84.0026 32.7714 83.8029 34.1203 83.7141 35.3143C83.6919 35.4691 83.7807 35.6239 83.8916 35.7124C83.9138 35.7345 86.9317 37.9457 88.5738 39.3388C90.571 41.0194 91.4142 42.5894 90.9482 43.7393C90.4378 45.0218 88.3075 45.7957 85.6669 45.6631C85.3562 45.6409 85.0455 45.6409 84.7349 45.6188L84.1579 45.5967C84.0248 45.5967 83.9138 45.6409 83.8251 45.7294C83.7363 45.8178 83.6919 45.9284 83.6919 46.0611C83.7363 47.4984 84.1579 50.3952 86.5989 53.6899C88.7957 56.2992 89.1286 59.3508 87.4865 62.0043C85.5337 65.1885 80.6518 67.7536 74.1278 66.2941C74.039 66.272 73.9725 66.272 73.8837 66.3162C72.1085 66.9133 69.2237 67.1786 67.7369 67.1786C66.2502 67.1786 63.3654 66.9133 61.5902 66.3162C61.5458 66.2941 61.5014 66.2941 61.457 66.2941C61.4126 66.2941 61.3905 66.2941 61.3683 66.2941C54.8443 67.7536 49.9624 65.1885 48.0096 62.0043C46.9444 60.2795 46.7225 58.3778 47.2995 56.5425C47.2995 56.5425 47.3217 56.454 47.3217 56.3656V56.3435C47.2995 56.1444 47.1664 56.0118 46.9666 55.9675C46.7669 55.9233 46.5894 56.0118 46.5006 56.1666C46.5006 56.1666 46.5006 56.1666 46.5006 56.1887C46.4563 56.2771 46.4119 56.4761 46.4119 56.4761C45.8349 58.4884 46.1012 60.5891 47.2551 62.4908C48.9638 65.277 52.6918 67.643 57.729 67.643C58.9051 67.643 60.17 67.5103 61.4792 67.2229C63.4542 67.842 66.3833 68.0853 67.8035 68.0853C69.2237 68.0853 72.1528 67.842 74.1278 67.2229C81.029 68.7265 86.2216 65.9403 88.3297 62.4908C90.1493 59.5056 89.7943 56.0118 87.3755 53.1371C85.334 50.3952 84.8014 47.9628 84.6905 46.5254H84.757C85.0677 46.5476 85.3784 46.5476 85.689 46.5697C88.7735 46.7245 91.1923 45.7515 91.858 44.0709C92.2131 43.0095 92.1021 41.1742 89.1286 38.6755Z" fill="#EB202A"/>
</svg>
